<svg xmlns="http://www.w3.org/2000/svg" viewBox="0 0 1000 700"><defs><style>.cls-1{fill:none;}</style></defs><title>EduTradeFxBlack Logo</title><g id="Layer_2" data-name="Layer 2"><g id="Layer_1-2" data-name="Layer 1"><rect class="cls-1" width="1000" height="700"/><path d="M120.81,536c-9.75,0-15.66-4.64-15.66-15.82V440c0-12,5.91-15.82,15.66-15.82H190v12.14H127.36c-6.23,0-7.35,1.92-7.35,7.51v28.93h68.4v12.14H120v31.32c0,5.6,1.12,7.67,7.35,7.67h63.29V536Z"/><path d="M236.67,536c-28,0-35.15-15.18-35.15-42.35,0-26.37,7.19-42.35,35.15-42.35h25.41V424.13h13.43v98.6c0,8.3-3.2,13.26-12.95,13.26Zm2.56-73.67c-20.29,0-23.65,11.34-23.65,31.32,0,20.78,3.36,31.48,23.65,31.48h17.26c4.47,0,5.59-1.76,5.59-6.07V462.32Z"/><path d="M364.36,522.09c0,8.95-3.68,13.9-12.94,13.9H320.09c-18.37,0-28.6-8-28.6-27.49V451.29h13.42v54.82c0,11.5,4.16,19,16.94,19H346c3.2,0,5-1.12,5-5.43v-68.4h13.42Z"/><path d="M415.18,536C396,536,384,529.12,384,508.34V465.67H372.35V451.29H384V424.13h18.7v27.16h24.13v14.38H402.72v38.84c0,12.78,6.71,17.1,19.49,17.1h4.64V536Z"/><path d="M434.2,483.25c0-22.69,11.5-32,34.2-32H481v14.38h-7.83c-15,0-20.29,7.52-20.29,22.54V536H434.2Z"/><path d="M537,451.29c16,0,23.82,10.55,23.82,24.93v45.39q0,14.39-14.39,14.38H503.71c-14.38,0-21.09-8.79-21.09-26.37,0-16,6.71-26.37,21.09-26.37h38.36v-5.43c0-8-3.84-12.15-11.83-12.15H488.85V451.29Zm-26,46.35c-6.4,0-9,4-9,12s2.55,12,9,12h26.36q4.8,0,4.8-4.8V497.64Z"/><path d="M651.54,521.61q0,14.37-14.39,14.38H607.59c-27.17,0-34.68-16.94-34.68-42.51s7.51-42.19,34.68-42.19h25.25V424.13h18.7Zm-39.32-55.94c-18.05,0-20,11.83-20,27.81s1.92,28.13,20,28.13H628q4.8,0,4.8-4.8V465.67Z"/><path d="M695.64,536c-27.16,0-32-15.34-32-42.51,0-33.56,12.15-43.15,40.91-43.15,24,0,40.75,6.4,40.75,33.56,0,9.59-3.51,16-13.1,16H683c0,12.79,2.24,21.74,18.22,21.74h41.39V536Zm26.21-50.5c3.68,0,4.16-2.56,4.16-4.95,0-11.19-10.23-15.82-21.42-15.82-16,0-21.57,6.39-21.57,20.77Z"/><path d="M762,536V465.67H750.14V451.29H762c0-22.37,16.3-28.44,37.07-28.44,1.6,0,3.2.16,4.8.16v13.74a21.44,21.44,0,0,0-3.2-.16c-10.23,0-20,.8-20,14.7h23.18v14.38H780.66V536Z"/><polygon points="870.96 535.99 849.54 504.67 828.29 535.99 806.39 535.99 838.83 492.52 808.47 451.29 829.73 451.29 849.54 480.38 869.36 451.29 890.61 451.29 860.41 492.52 892.85 535.99 870.96 535.99"/><path d="M489.83,163,384.36,249.06l37.4,11.54a14.13,14.13,0,0,1-3.91-6c-3.28-10.3,4.44-23.81,24.31-42.51,13.29-12.51,51.26-34.38,51.26-34.38-11.74,13.67-37.06,50-36.65,54.6,1.09.7,3.71,1.64,9.89,1.64a192.22,192.22,0,0,0,19.21-1.48,223.54,223.54,0,0,1,23.5-1.74c.41,0,.81,0,1.22,0,14.68.2,26.81,8.86,28.92,10.45l.77.46,13.92.47c-1-8.52-1.53-17.07-1.93-25.63a81.39,81.39,0,0,0-17.92-7.47c-20.14-5.92-41.39-4.91-61.94-1.23a93.22,93.22,0,0,1,42.1-8c14.9.88,30.15,5.05,42,14.4-.41,9.32-1,18.63-2,27.91l10.52.35-3.93-47.86s17,20.67,22,32c.72,1.65,1.4,3.25,2,4.79l34.72-28.34Z"/><path d="M583.2,258.58c-1,1.68-4.49,2.45-8.12,2.8q-2.13-1-4.25-2.22c-.85-.48-3.14-1.83-3.14-1.83l-1.17-.65h0c-7-4-12.41-7.14-16.37-9.44l20,1.83a1.52,1.52,0,0,0,1.64-1.69l-4.93-39.17s23.26,39.06,16.37,50.37"/><path d="M393.88,296.77v19.06L386,309.49l-7.88,6.34V296.77l6-19.28v-.06a6.49,6.49,0,0,1,0-12.42V252.4l3.78,1.16V265a6.49,6.49,0,0,1,0,12.42v.77Z"/><path d="M552.14,332.94s-15.62,7.6-23.2,22.77c0,0,4.81-24.79,29.6-35.56s42.77-2,42.77-2,14.78-15.59,17.58-33.58l-8.79-12.79s-22.78,4-44.38-8.41c-1.09-.63-2.15-1.24-3.16-1.84h0c-18.56-10.65-26-15-26.46-15.31l0,0s-11.6-9.18-25.53-9.37c-21.36-.28-49.31,7.5-58.12-.23s21-42.58,21-42.58-55.6,40.43-49.75,58.76c4.42,13.86,56.36,14.4,56.36,14.4l-40.18,12s19.1,14.92,38.83,7.26c-2.75,1.19-53.76,42.43-49.56,99.83.27.27.54.52.8.79h17.69v-32.2h13.25V387h11v-47.3H485V387h11v-62.4h13.25V387h104.1l-2.43-1.77c-22.68-10.07-49-26.77-58.76-52.33M521,268.09a12.49,12.49,0,0,1-7.3-2.34l-6.7-4.81,25.57,2.91-6.06,3a12.68,12.68,0,0,1-5.51,1.27"/></g></g></svg>