<svg xmlns="http://www.w3.org/2000/svg" viewBox="0 0 500 500"><defs><style>.cls-1{fill:none;}.cls-2{fill:#fff;}</style></defs><title>EduTradeFxBrandmark White Logo</title><g id="Layer_2" data-name="Layer 2"><g id="Layer_1-2" data-name="Layer 1"><rect class="cls-1" width="500" height="500"/><path class="cls-2" d="M236.09,79.18,76.19,209.63l56.7,17.5a21.33,21.33,0,0,1-5.91-9.06c-5-15.62,6.72-36.1,36.85-64.46,20.14-19,77.72-52.12,77.72-52.12-17.81,20.73-56.2,75.74-55.58,82.78,1.66,1.07,5.63,2.48,15,2.48,8.38,0,18.45-1.08,29.13-2.24,11.88-1.29,24.13-2.63,35.62-2.63.63,0,1.23,0,1.86,0,22.25.31,40.63,13.43,43.83,15.84l1.18.7,21.1.71c-1.47-12.91-2.33-25.87-2.93-38.84A122.83,122.83,0,0,0,303.6,149c-30.54-9-62.75-7.43-93.91-1.86A141.14,141.14,0,0,1,273.51,135c22.59,1.34,45.72,7.65,63.76,21.83-.62,14.13-1.5,28.25-3.1,42.31l15.95.54-6-72.56s25.75,31.33,33.4,48.59c1.1,2.5,2.13,4.93,3.07,7.26l52.64-43Z"/><path class="cls-2" d="M377.66,224.07c-1.54,2.54-6.82,3.71-12.31,4.25-2.16-1-4.31-2.14-6.46-3.37-1.28-.73-4.76-2.77-4.76-2.77l-1.76-1h0c-10.66-6.12-18.82-10.83-24.81-14.32l30.29,2.77a2.3,2.3,0,0,0,2.48-2.55l-7.48-59.38s35.27,59.21,24.83,76.36"/><path class="cls-2" d="M90.63,282v28.89l-11.95-9.61-12,9.61V282l9.08-29.23v-.09a9.85,9.85,0,0,1,0-18.84V214.69l5.74,1.77v17.35a9.85,9.85,0,0,1,0,18.84v1.16Z"/><path class="cls-2" d="M330.57,336.8s-23.69,11.52-35.18,34.53c0,0,7.3-37.58,44.88-53.92s64.84-3,64.84-3,22.41-23.63,26.65-50.91l-13.32-19.39s-34.54,6.05-67.29-12.73l-4.79-2.8h0c-28.14-16.15-39.42-22.79-40.12-23.21l0,0s-17.59-13.91-38.71-14.2c-32.38-.43-74.76,11.37-88.11-.35-13.49-11.89,31.82-64.55,31.82-64.55s-84.29,61.29-75.43,89.08c6.71,21,85.44,21.84,85.44,21.84l-60.9,18.16s28.95,22.62,58.86,11C215,268.08,137.62,330.6,144,417.63l1.21,1.19H172V370h20.09v48.81h16.61V347.11h20.08v71.71h16.62v-94.6h20.08v94.6H423.33l-3.68-2.68c-34.39-15.27-74.34-40.58-89.08-79.34m-47.24-98.31a18.87,18.87,0,0,1-11.07-3.56l-10.16-7.28,38.77,4.4-9.2,4.5a19,19,0,0,1-8.34,1.94"/></g></g></svg>